<svg xmlns="http://www.w3.org/2000/svg" xmlns:xlink="http://www.w3.org/1999/xlink" viewBox="0 0 452.04 390.91"><defs><style>.cls-1{isolation:isolate;}.cls-2{fill:url(#Dégradé_sans_nom_129);}.cls-3{fill:url(#Dégradé_sans_nom_117);}.cls-4{fill:url(#Dégradé_sans_nom_109);}.cls-5{fill:url(#Dégradé_sans_nom_104);}.cls-6{fill:url(#Dégradé_sans_nom_113);}.cls-7{fill:url(#Dégradé_sans_nom_125);}.cls-14,.cls-19,.cls-20,.cls-8{fill:#5e3e13;mix-blend-mode:multiply;}.cls-8{opacity:0.31;}.cls-9{fill:url(#linear-gradient);}.cls-10{fill:url(#linear-gradient-2);}.cls-11{fill:url(#Dégradé_sans_nom_76);}.cls-12{fill:url(#Dégradé_sans_nom_80);}.cls-13{fill:url(#Dégradé_sans_nom_100);}.cls-14{opacity:0.15;}.cls-15{fill:url(#Dégradé_sans_nom_139);}.cls-16{fill:url(#Dégradé_sans_nom_143);}.cls-17{fill:url(#Dégradé_sans_nom_96);}.cls-18{fill:url(#Dégradé_sans_nom_92);}.cls-19{opacity:0.25;}.cls-20{opacity:0.35;}.cls-21{fill:#6d61a8;}</style><linearGradient id="D&#xE9;grad&#xE9;_sans_nom_129" x1="7296.82" y1="2090.82" x2="7243.12" y2="2006.18" gradientTransform="matrix(-1, 0, 0, 1, 10176.36, 0)" gradientUnits="userSpaceOnUse"><stop offset="0" stop-color="#ffdf43"></stop><stop offset="1" stop-color="#e74121"></stop></linearGradient><linearGradient id="D&#xE9;grad&#xE9;_sans_nom_117" x1="7362.81" y1="2060.36" x2="7250.2" y2="2002.64" xlink:href="#D&#xE9;grad&#xE9;_sans_nom_129"></linearGradient><linearGradient id="D&#xE9;grad&#xE9;_sans_nom_109" x1="7420.72" y1="2059.2" x2="7294.93" y2="2007.95" xlink:href="#D&#xE9;grad&#xE9;_sans_nom_129"></linearGradient><linearGradient id="D&#xE9;grad&#xE9;_sans_nom_104" x1="7415.41" y1="2057.03" x2="7321.32" y2="2018.7" xlink:href="#D&#xE9;grad&#xE9;_sans_nom_129"></linearGradient><linearGradient id="D&#xE9;grad&#xE9;_sans_nom_113" x1="7372.43" y1="2080" x2="7279.88" y2="2028.7" xlink:href="#D&#xE9;grad&#xE9;_sans_nom_129"></linearGradient><linearGradient id="D&#xE9;grad&#xE9;_sans_nom_125" x1="7300" y1="2103.48" x2="7247.48" y2="2020.68" xlink:href="#D&#xE9;grad&#xE9;_sans_nom_129"></linearGradient><linearGradient id="linear-gradient" x1="-971.49" y1="2042.91" x2="-973.29" y2="2039.75" gradientTransform="translate(1360.69 -1841.44) rotate(1.81)" gradientUnits="userSpaceOnUse"><stop offset="0" stop-color="#f3ce3c"></stop><stop offset="1" stop-color="#e64120"></stop></linearGradient><linearGradient id="linear-gradient-2" x1="-973.52" y1="2039.72" x2="-971.26" y2="2042.95" xlink:href="#linear-gradient"></linearGradient><linearGradient id="D&#xE9;grad&#xE9;_sans_nom_76" x1="7310.27" y1="1815.65" x2="7262.21" y2="1894.63" xlink:href="#D&#xE9;grad&#xE9;_sans_nom_129"></linearGradient><linearGradient id="D&#xE9;grad&#xE9;_sans_nom_80" x1="7337.89" y1="1838.24" x2="7280.18" y2="1883.73" xlink:href="#D&#xE9;grad&#xE9;_sans_nom_129"></linearGradient><linearGradient id="D&#xE9;grad&#xE9;_sans_nom_100" x1="7457.07" y1="1904.21" x2="7265.05" y2="1942.61" xlink:href="#D&#xE9;grad&#xE9;_sans_nom_129"></linearGradient><linearGradient id="D&#xE9;grad&#xE9;_sans_nom_139" x1="7383.85" y1="1857.95" x2="7215.66" y2="1913.09" gradientTransform="matrix(-1, 0, 0, 1, 10176.36, 0)" gradientUnits="userSpaceOnUse"><stop offset="0" stop-color="#ffdf43"></stop><stop offset="1" stop-color="#e74121"></stop></linearGradient><linearGradient id="D&#xE9;grad&#xE9;_sans_nom_143" x1="7412.59" y1="1854.86" x2="7217.68" y2="1918.77" xlink:href="#D&#xE9;grad&#xE9;_sans_nom_129"></linearGradient><linearGradient id="D&#xE9;grad&#xE9;_sans_nom_96" x1="7439.12" y1="1866.59" x2="7208.19" y2="1943.16" xlink:href="#D&#xE9;grad&#xE9;_sans_nom_129"></linearGradient><linearGradient id="D&#xE9;grad&#xE9;_sans_nom_92" x1="7392.46" y1="1889.47" x2="7213.77" y2="1948.72" xlink:href="#D&#xE9;grad&#xE9;_sans_nom_129"></linearGradient></defs><g class="cls-1"><g id="Calque_1" data-name="Calque 1"><path class="cls-2" d="M2927.26,2035.49c30.9-24.45,39-61.79,37.83-95a79.92,79.92,0,0,0-1.86-20.63c-.4-2.76-1.25-3.76-1.75-6.38,9.52,37.23,7.92,65.54-8.22,106-19.11,47.95-50.55,36.92-61.6,93.26-14.08-23.79-14.88-39.15-9.74-51.38C2896.15,2055.36,2911.37,2048.05,2927.26,2035.49Z" transform="translate(-2515.31 -1742.06)"></path><path class="cls-3" d="M2849.69,2038.56c13.44-3.57,27.6-7.64,43.28-15.51l1.17-.59a182.22,182.22,0,0,0,21.55-13,106.15,106.15,0,0,0,24.43-23.34c14.92-10.06,24.08-26,25-45.74,1.16,33.28-6.89,70.68-37.83,95.16-42.91,33.94-80.93,29.5-107.84,64.22C2822,2059.38,2830.21,2047.08,2849.69,2038.56Z" transform="translate(-2515.31 -1742.06)"></path><path class="cls-4" d="M2854.73,2003.78c4.14-1.65,9.49-5.61,10.43-10a185.41,185.41,0,0,0,19.88,3.42c22.07,2.62,41.1-1.65,55.08-11.08a106.33,106.33,0,0,1-24.43,23.33c-54.35,38.12-90.09,23.19-131.69,59.06C2793,2011.34,2817.9,2018.46,2854.73,2003.78Z" transform="translate(-2515.31 -1742.06)"></path><path class="cls-5" d="M2854.73,2003.78c4.14-1.65,9.49-5.61,10.43-10a185.41,185.41,0,0,0,19.88,3.42,108,108,0,0,0,12.11.76c-10.59,11.2-32.36,22.26-60.25,25.81-40.47,5.16-52.9,44.74-52.9,44.74C2793,2011.34,2817.9,2018.46,2854.73,2003.78Z" transform="translate(-2515.31 -1742.06)"></path><path class="cls-6" d="M2849.69,2038.56c13.44-3.57,27.6-7.64,43.28-15.51l1.17-.59a182.22,182.22,0,0,0,21.55-13,106.15,106.15,0,0,0,24.43-23.34,55.64,55.64,0,0,0,18.08-19.88c-.16,28.39-31.07,61.08-83.4,78.42-51.94,17.22-55.38,55.1-55.38,55.1C2822,2059.38,2830.21,2047.08,2849.69,2038.56Z" transform="translate(-2515.31 -1742.06)"></path><path class="cls-7" d="M2927.26,2035.49c15.92-12.6,25.77-28.63,31.43-45.75,0,0,0,.06,0,.09-8.87,40.58-32.09,51.65-57.07,75.92-18.31,17.79-10,47-10,47-14.08-23.79-14.88-39.15-9.74-51.38C2896.15,2055.36,2911.37,2048.05,2927.26,2035.49Z" transform="translate(-2515.31 -1742.06)"></path><path class="cls-8" d="M2904.68,2016.59c-15.16,15.87-66.61,28.68-66.61,28.68l-1,.8a50.79,50.79,0,0,1,12.61-7.51c13.44-3.57,27.6-7.64,43.28-15.51l1.17-.59q5.16-2.64,10.54-5.87Z" transform="translate(-2515.31 -1742.06)"></path><path class="cls-8" d="M2880.8,2064.42c.34-1.05.7-2.08,1.12-3.08,11.72-4.92,24.1-10.75,37-19.67l0,0C2905,2053.2,2887.64,2061.41,2880.8,2064.42Z" transform="translate(-2515.31 -1742.06)"></path><polygon class="cls-9" points="324.28 168.14 324.28 168.14 324.28 168.14 324.28 168.14"></polygon><polygon class="cls-10" points="324.28 168.14 324.28 168.14 324.28 168.14 324.28 168.14"></polygon><path class="cls-11" d="M2894.37,1824.9a60.21,60.21,0,0,1,13.54,9.59c33,45.59-.87,65.38-32.1,63l0,0c14.67-15.35-3-53.15-40.69-41.23,0,0,3.94-37.78,61.25-43.81,21.8-2.3,21.79-2.43,21.79-2.43S2917,1822.23,2894.37,1824.9Z" transform="translate(-2515.31 -1742.06)"></path><path class="cls-12" d="M2893.71,1852c11.6,8.7,16.54,25.6,12.34,39.93-8.52,4.54-19.53,6.32-30.24,5.48l0,0c14.67-15.35-3-53.15-40.69-41.23C2835.16,1856.17,2865.34,1830.76,2893.71,1852Z" transform="translate(-2515.31 -1742.06)"></path><path class="cls-8" d="M2879.72,1891.08c8.3.62,19.66.61,27.52-4.94,15.76-11.15,13.8-31.69-1.6-53.74l1.09,1c.39.38.79.74,1.18,1.13,33,45.59-.87,65.38-32.1,63l0,0A17.9,17.9,0,0,0,2879.72,1891.08Z" transform="translate(-2515.31 -1742.06)"></path><path class="cls-13" d="M2868.68,1978.5c54,12.73,109.35-29.21,83.39-88.18,34.73,65.13-3.7,114.37-67,106.84-91.57-10.88-94.58-72.15-174.07-84.78,18.08-8,33.19-12.08,46.2-13.44C2788.72,1926.84,2805.34,1963.57,2868.68,1978.5Z" transform="translate(-2515.31 -1742.06)"></path><path class="cls-14" d="M2757.17,1898.94c31.55,27.9,48.17,64.63,111.51,79.56,32.79,7.72,66-4.69,81.33-28.81-15.13,26-48.72,39.7-84.37,31.09-60.07-14.51-83.9-59-112.53-81.35C2755.22,1899.09,2755.17,1899.15,2757.17,1898.94Z" transform="translate(-2515.31 -1742.06)"></path><path class="cls-15" d="M2907.91,1834.48c45.08,62.37-34.77,76.45-62,51.46-37.07-34-51.86-78-145.65-47.64,78,19.75,75.45,84.78,165.66,103.87C2928.28,1955.38,2987.69,1900,2907.91,1834.48Z" transform="translate(-2515.31 -1742.06)"></path><path class="cls-16" d="M2865.88,1942.17c-89.59-19-87.66-83.24-164.07-103.46,79.73-8.27,100.65,38.42,140.5,69.29,40.18,31.12,128.7,2,85.38-54.36C2975.86,1910.32,2922.08,1954.06,2865.88,1942.17Z" transform="translate(-2515.31 -1742.06)"></path><path class="cls-17" d="M2865.88,1942.17c53.06,11.23,103.95-27.12,68.95-79.14v0c59.7,72.6-4.07,130.12-66.14,115.5-89.76-21.15-85.7-86.11-163.25-107.63,17.34-5.38,31.82-7.84,44.21-8.12C2783.76,1890.14,2800.31,1928.29,2865.88,1942.17Z" transform="translate(-2515.31 -1742.06)"></path><path class="cls-18" d="M2861.18,1958.75c-85.64-22.43-76.59-88.16-155.75-87.88,7.7-1.43,24-8.12,44.21-8.12,34.12,27.39,50.67,65.54,116.24,79.42,39.65,8.39,78.08-10.91,80.37-42.9C2949,1941.88,2904.36,1970.06,2861.18,1958.75Z" transform="translate(-2515.31 -1742.06)"></path><path class="cls-19" d="M2749.64,1862.75c34.12,27.39,50.67,65.54,116.24,79.42,39.65,8.39,78.08-10.91,80.37-42.9l0,.56c-2.5,33.65-41.67,53.93-82.09,45.08-65.63-14.36-80.27-54-118.43-82.16C2746.44,1862.72,2748.93,1862.77,2749.64,1862.75Z" transform="translate(-2515.31 -1742.06)"></path><path class="cls-20" d="M2857.55,2002.39c3.44-2,6.87-5.18,7.61-8.65a185.41,185.41,0,0,0,19.88,3.42c1.24.15,2.47.27,3.69.37l1.1.09c.89.06,1.77.12,2.64.16l1.12.06c1.12,0,2.23.07,3.33.08h.23c16.93.07,31.62-4.18,43-11.84h0c1-.64,1.88-1.3,2.78-2l.51-.41c.73-.57,1.44-1.14,2.13-1.73l.4-.37c.72-.63,1.43-1.27,2.11-1.93l.24-.25c.73-.71,1.44-1.44,2.12-2.19l.1-.11a55.55,55.55,0,0,0,7.69-10.9C2950,2002.21,2897.15,2010.33,2857.55,2002.39Z" transform="translate(-2515.31 -1742.06)"></path><rect class="cls-21" x="86.3" y="105.22" width="19.5" height="19.5" rx="2.91"></rect><path class="cls-21" d="M2692.6,1929.14a3.71,3.71,0,0,0,3.71-3.71v-17.1a3.71,3.71,0,0,0-3.71-3.71h-16.77a3.72,3.72,0,0,0-3.71,3.71v12.11a15.15,15.15,0,0,1-.38,2.24,15.49,15.49,0,0,1-1.58,4.57c-2.67,5.52-7.2,9.17-11.36,13.21a21,21,0,0,1-3.65,2.49,13.35,13.35,0,0,1-4.44,1.7,39.9,39.9,0,0,1-4.1.39h-32.92a7.41,7.41,0,0,0-7.41,7.4v34.81a7.41,7.41,0,0,0,7.41,7.4h34.8a7.4,7.4,0,0,0,7.4-7.4v-32.68a38.32,38.32,0,0,1,.39-4,13.43,13.43,0,0,1,1.7-4.44,20.78,20.78,0,0,1,2.49-3.65c4-4.16,7.7-8.69,13.22-11.36a15.71,15.71,0,0,1,4.56-1.57,16.56,16.56,0,0,1,2.24-.39Z" transform="translate(-2515.31 -1742.06)"></path><rect class="cls-21" x="35.12" y="189.52" width="29.17" height="29.17" rx="4.35"></rect><path class="cls-21" d="M2749.71,1960.32a11,11,0,0,1,3.86,1.43,26,26,0,0,1,3.06,2.22c3.95,3.07,7.25,6.81,10.75,10.35a66.35,66.35,0,0,1,4.95,5.61c1.47,2,3.44,3.84,4.24,6.57a34.21,34.21,0,0,1,.93,4.34c.22,1.54.25,3.27.36,4.91a29.18,29.18,0,0,1-.1,3.49,14.58,14.58,0,0,1-1.16,4.45,37.47,37.47,0,0,1-2.82,4.4,58,58,0,0,1-6.62,7.85c-2.44,2.4-4.77,4.9-7.32,7.19a34,34,0,0,1-9,5.56c-3.42,1.44-8,1.81-12.45,2.22-.26,0-.82,0-1.09,0h-21a6.81,6.81,0,0,0-6.81,6.81v32a6.81,6.81,0,0,0,6.81,6.81h20.08c1.8.12,3.53.32,5.3.47a51.3,51.3,0,0,1,7.15,1,22.93,22.93,0,0,1,5.83,2.34,35.12,35.12,0,0,1,5,3.21,47.8,47.8,0,0,1,4.27,3.9l4.07,4.09c1.37,1.35,2.74,2.7,4.06,4.1a84,84,0,0,1,7.39,9,22.45,22.45,0,0,1,3.13,5,21.77,21.77,0,0,1,1.18,7c0,2.46-.11,5.08,0,7.44v4.72a4.14,4.14,0,0,0,4.14,4.14h19.49a4.14,4.14,0,0,0,4.15-4.14v-19.5a4.14,4.14,0,0,0-4.15-4.14h-5c-2.11-.09-4.39,0-6.59,0h-.58a21.73,21.73,0,0,1-6.94-1.17,23.15,23.15,0,0,1-5-3.14,84,84,0,0,1-8.95-7.38c-1.4-1.32-2.75-2.69-4.1-4.06l-4.09-4.08a45.19,45.19,0,0,1-3.9-4.27,34.45,34.45,0,0,1-3.21-5,22.57,22.57,0,0,1-2.34-5.83,51.3,51.3,0,0,1-1-7.15c0-.38-.07-.76-.11-1.13v-.11c0-2.37-.14-4.9-.23-7.36l-.11-2.33v-5.91c.24-4.18.51-8.33,1.74-11.56a34,34,0,0,1,5.26-9.18c2.2-2.63,4.62-5,6.93-7.56a59.48,59.48,0,0,1,7.62-6.89,40,40,0,0,1,4.31-3,18.11,18.11,0,0,1,5.64-1.61,11,11,0,0,1,1.75-.09h9.12a3.46,3.46,0,0,0,3.46-3.46v-16.27a3.46,3.46,0,0,0-3.46-3.46h-2.24c-1.51,0-3,0-4.57-.07s-3.68-.15-5.22-.37a32.56,32.56,0,0,1-4.34-.93c-2.73-.8-4.58-2.5-6.62-4a62.49,62.49,0,0,1-5.62-4.89c-3.54-3.5-7.28-6.8-10.35-10.76a24.4,24.4,0,0,1-2.22-3.06,13.06,13.06,0,0,1-1.33-3.94,45.58,45.58,0,0,1-.42-5.58c0-.53,0-1,0-1.51V1947a2.3,2.3,0,0,0-2.31-2.31H2742a2.3,2.3,0,0,0-2.31,2.31v7a19.18,19.18,0,0,1-.63,3.32,12.34,12.34,0,0,1-1.42,2.89,10.06,10.06,0,0,1-2,2.28,18.24,18.24,0,0,1-2.46,1.86,14.83,14.83,0,0,1-3.13,1.17,27.43,27.43,0,0,1-3.49.82,54,54,0,0,1-7.45.58h-3.62c-2,0-4-.06-5.9,0-.94,0-1.84,0-2.73,0h-8.32a6,6,0,0,0-6,6v28.42a6,6,0,0,0,6,6h28.14a6,6,0,0,0,6-6v-22a50.78,50.78,0,0,1,.55-6.29,29.06,29.06,0,0,1,.83-3.48,13.91,13.91,0,0,1,1.18-3.14,16.11,16.11,0,0,1,1.86-2.45,9.44,9.44,0,0,1,2.28-2,12.69,12.69,0,0,1,2.88-1.43,14.35,14.35,0,0,1,3.54-.43A33.28,33.28,0,0,1,2749.71,1960.32Z" transform="translate(-2515.31 -1742.06)"></path><path class="cls-21" d="M2850.17,1769h-25.12a5.34,5.34,0,0,0-5.34,5.34v17.89c0,.35,0,.72-.06,1.06a51.58,51.58,0,0,1-1,7.16c-.28,1.07-.48,2.23-.83,3.23a6.22,6.22,0,0,1-1.62,2.44,14.49,14.49,0,0,1-2.12,1.94,16.48,16.48,0,0,1-8.21,2.65h-3.21a11.46,11.46,0,0,1-1.39-.25,10.74,10.74,0,0,1-4.18-2.22c-1.22-.91-2.46-1.8-3.59-2.8-2.29-2-4.21-4.32-6.38-6.41a33.39,33.39,0,0,1-3.05-3.35,21.12,21.12,0,0,1-2.4-4,12.43,12.43,0,0,1-1.27-5.11c-.06-2.07,0-4.21-.08-6.3-.15-4.1-.15-8.35-.08-12.68.05-2.16,0-4.27,0-6.39l0-3.16-.05-1v-7.18a7.79,7.79,0,0,0-7.79-7.79h-36.62a7.8,7.8,0,0,0-7.8,7.79v27l-.12,6.76c-.06,1.67-.14,3.33-.3,4.91l-.28,2.32a7.19,7.19,0,0,1-.51,2.1c-1.39,2.08-3.07,4.21-5.88,4.87a26.14,26.14,0,0,1-5.65,1.16h-5.71c-.79-.1-1.56-.24-2.33-.36a11.28,11.28,0,0,1-4.05-1.53,38.37,38.37,0,0,1-6.34-4.82c-1.9-1.83-3.72-3.73-5.58-5.58a39.58,39.58,0,0,1-5.18-6c-.38-.55-.75-1.1-1.09-1.69a17.15,17.15,0,0,1-1-1.78,14,14,0,0,1-.95-4.62c-.17-1.7-.31-3.41-.4-5.18,0-1.24,0-2.51-.06-3.76v-8.87a4.38,4.38,0,0,0-4.39-4.39h-20.63a4.39,4.39,0,0,0-4.39,4.39v20.63a4.4,4.4,0,0,0,4.39,4.39h9.17c1.26,0,2.53,0,3.79.06,1.76.09,3.48.23,5.18.4a13.76,13.76,0,0,1,4.62,1,18.18,18.18,0,0,1,1.78,1c.58.35,1.14.72,1.69,1.1a40.07,40.07,0,0,1,6,5.18c1.85,1.87,3.75,3.69,5.57,5.59a37.82,37.82,0,0,1,4.82,6.34,11.09,11.09,0,0,1,1.52,4c.13.78.26,1.55.37,2.35v10.74a3.32,3.32,0,0,0,3.32,3.32h15a3.33,3.33,0,0,0,3.33-3.32v-10.42a25.46,25.46,0,0,1,1.18-5.79,8.35,8.35,0,0,1,2.31-4.08l.11-.11a14.73,14.73,0,0,1,2.13-1.68,6.75,6.75,0,0,1,2.09-.5l2.33-.28c1.57-.16,3.23-.23,4.91-.29,3-.05,6-.11,9-.15h11.69c1.93,0,3.86,0,5.75,0l1.08,0c2.09.06,4.23,0,6.3.13a12.34,12.34,0,0,1,5.1,1.3,21.08,21.08,0,0,1,4,2.41,35.93,35.93,0,0,1,3.33,3.07c2.08,2.19,4.41,4.12,6.37,6.42,1,1.14,1.88,2.38,2.78,3.61a10.79,10.79,0,0,1,2.2,4.2,11.74,11.74,0,0,1,.22,1.28v8.68a2.58,2.58,0,0,0,2.59,2.58h12.14a2.58,2.58,0,0,0,2.58-2.58V1819a16.64,16.64,0,0,1,1.27-6,16,16,0,0,1,1.41-2.66,14.44,14.44,0,0,1,1.94-2.12,6.26,6.26,0,0,1,2.44-1.62c1-.35,2.15-.55,3.23-.82a51.43,51.43,0,0,1,7.15-1c.5,0,1-.06,1.52-.09h17.41a5.34,5.34,0,0,0,5.34-5.35v-25.11A5.34,5.34,0,0,0,2850.17,1769Z" transform="translate(-2515.31 -1742.06)"></path><path class="cls-21" d="M2609.05,1817.41c1.62,0,3.24,0,4.83,0h2.75l.71,0a38.38,38.38,0,0,1,7,.91,21.93,21.93,0,0,1,5.75,1.88,42,42,0,0,1,8.81,7c2.64,2.65,5.33,5.25,7.92,7.93s4.58,6.29,6.68,9.48a14,14,0,0,1,2.47,5.46c.23,1.32.46,2.64.62,4v6s0,.76,0,.8c0,1.81-.28,3.42-.47,5.08l-.35,2.42a11.15,11.15,0,0,1-.63,2.14,21.78,21.78,0,0,1-2,3.54,36.58,36.58,0,0,1-5.08,6c-1.84,1.85-3.66,3.71-5.54,5.53a76.73,76.73,0,0,1-6,5.11,25,25,0,0,1-3.21,2.32,12.48,12.48,0,0,1-4.6.93c-1.35.05-2.79,0-4.14.05h-4.15a2.76,2.76,0,0,0-2.75,2.76v12.27a2.75,2.75,0,0,0,2.75,2.75h12.27a2.76,2.76,0,0,0,2.76-2.75v-3.86c.06-1.42,0-2.93.09-4.35a12.45,12.45,0,0,1,1-4.59,24.92,24.92,0,0,1,2.34-3.19,75,75,0,0,1,5.14-5.94c1.83-1.86,3.71-3.67,5.57-5.5a36.63,36.63,0,0,1,6-5,22.53,22.53,0,0,1,3.55-2,12.16,12.16,0,0,1,2.14-.62l2.43-.34c1.64-.17,3.24-.4,5-.43h13a4.42,4.42,0,0,0,4.42-4.41v-20.75a4.41,4.41,0,0,0-4.42-4.41h-14.6c-1.43-.16-2.78-.39-4.13-.63a14,14,0,0,1-5.45-2.48,60.58,60.58,0,0,1-8.86-7c-2.68-2.6-5.28-5.29-7.92-7.93a42.75,42.75,0,0,1-7-8.83,20.84,20.84,0,0,1-2.47-5.44,37.55,37.55,0,0,1-.9-7c0-.41,0-.85-.08-1.27v-23.76a6.67,6.67,0,0,0-6.67-6.66h-31.32a6.66,6.66,0,0,0-6.66,6.66v4.1c-.09,1.83-.09,3.76-.07,5.7,0,2.74.12,5.63.07,8.33s-.24,5.27-.38,7.87c-.1,1.28-.18,2.58-.32,3.81a23.22,23.22,0,0,1-3.14,9.25,23.94,23.94,0,0,1-3.82,4.44c-1.39,1.36-2.72,2.79-4.1,4.16a20.79,20.79,0,0,1-4.58,3.68,25.19,25.19,0,0,1-5.85,2.41,34.57,34.57,0,0,1-7.19,1.08c-1.54.11-3.11.2-4.67.3h-28.38a7.94,7.94,0,0,0-7.94,7.94v37.34a8,8,0,0,0,7.94,8h37.34a8,8,0,0,0,7.95-8v-27.55c.1-1.83.21-3.66.34-5.46a34.49,34.49,0,0,1,1.07-7.19,24.84,24.84,0,0,1,2.41-5.85,20.3,20.3,0,0,1,3.67-4.59c1.37-1.38,2.79-2.71,4.15-4.11a24.37,24.37,0,0,1,4.44-3.83,23.88,23.88,0,0,1,5.79-2.47,22,22,0,0,1,3.45-.67c1.24-.15,2.54-.22,3.81-.33,2.51-.14,5-.32,7.57-.37Z" transform="translate(-2515.31 -1742.06)"></path></g></g></svg>